<svg xmlns="http://www.w3.org/2000/svg" viewBox="0 0 128 128">
  <!-- Background circle -->
  <circle cx="64" cy="64" r="60" fill="#1e293b" stroke="#3b82f6" stroke-width="3"/>
  <!-- Sun -->
  <circle cx="52" cy="42" r="14" fill="#fbbf24"/>
  <g stroke="#fbbf24" stroke-width="2.5" stroke-linecap="round">
    <line x1="52" y1="22" x2="52" y2="26"/>
    <line x1="52" y1="58" x2="52" y2="62"/>
    <line x1="32" y1="42" x2="36" y2="42"/>
    <line x1="68" y1="42" x2="72" y2="42"/>
    <line x1="37.9" y1="27.9" x2="40.7" y2="30.7"/>
    <line x1="63.3" y1="53.3" x2="66.1" y2="56.1"/>
    <line x1="37.9" y1="56.1" x2="40.7" y2="53.3"/>
    <line x1="63.3" y1="30.7" x2="66.1" y2="27.9"/>
  </g>
  <!-- Cloud -->
  <path d="M88 58c0-6.6-5.4-12-12-12-1.2 0-2.3.2-3.4.5C70.2 41.2 64.7 37 58 37c-8.8 0-16 7.2-16 16 0 .6 0 1.1.1 1.7C36.5 56.1 32 61.5 32 68c0 7.7 6.3 14 14 14h38c6.6 0 12-5.4 12-12 0-5-3.1-9.3-7.5-11.1" fill="#60a5fa" opacity="0.9"/>
  <!-- Thermometer -->
  <rect x="82" y="52" width="8" height="32" rx="4" fill="#334155" stroke="#94a3b8" stroke-width="1.5"/>
  <circle cx="86" cy="88" r="8" fill="#334155" stroke="#94a3b8" stroke-width="1.5"/>
  <rect x="84" y="64" width="4" height="20" rx="2" fill="#ef4444"/>
  <circle cx="86" cy="88" r="5.5" fill="#ef4444"/>
</svg>
